<?xml version="1.0" standalone="no"?>
<!DOCTYPE svg PUBLIC "-//W3C//DTD SVG 1.1//EN" "http://www.w3.org/Graphics/SVG/1.1/DTD/svg11.dtd">
<svg xmlns="http://www.w3.org/2000/svg" viewBox="0 0 33 33" shape-rendering="crispEdges" style="fill: rgb(255, 255, 255);" width="33" height="33"><path fill="#ffffff" d="M0 0h33v33H0z"/><path stroke="#000000" d="M2 2.5h7m6 0h2m1 0h1m1 0h2m2 0h7M2 3.5h1m5 0h1m1 0h1m1 0h1m3 0h2m2 0h2m2 0h1m5 0h1M2 4.5h1m1 0h3m1 0h1m3 0h2m1 0h2m1 0h2m2 0h1m1 0h1m1 0h3m1 0h1M2 5.5h1m1 0h3m1 0h1m2 0h3m1 0h3m1 0h1m1 0h1m2 0h1m1 0h3m1 0h1M2 6.5h1m1 0h3m1 0h1m1 0h2m2 0h1m1 0h1m4 0h2m1 0h1m1 0h3m1 0h1M2 7.5h1m5 0h1m4 0h1m1 0h1m3 0h1m1 0h1m2 0h1m5 0h1M2 8.5h7m1 0h1m1 0h1m1 0h1m1 0h1m1 0h1m1 0h1m1 0h1m1 0h7M12 9.5h9m1 0h1M2 10.5h1m1 0h1m1 0h1m1 0h1m2 0h3m2 0h3m1 0h1m1 0h1m3 0h1m2 0h1M2 11.5h2m1 0h1m1 0h1m5 0h2m1 0h2m4 0h1m1 0h1m2 0h1m2 0h1M3 12.5h1m4 0h1m6 0h1m1 0h4m1 0h5m1 0h3M7 13.5h1m1 0h1m2 0h1m4 0h10m2 0h1M2 14.5h2m1 0h6m6 0h2m3 0h1m1 0h1m2 0h1m1 0h2M2 15.5h1m1 0h2m1 0h1m1 0h1m1 0h2m1 0h2m1 0h1m1 0h1m2 0h3m2 0h1m2 0h1M3 16.5h1m2 0h4m3 0h1m2 0h1m1 0h1m3 0h2m2 0h2m1 0h2M3 17.5h1m1 0h1m1 0h1m4 0h2m1 0h2m1 0h1m1 0h2m1 0h5m1 0h1M8 18.5h1m2 0h3m2 0h3m1 0h1m2 0h3m1 0h1m1 0h2M3 19.5h5m2 0h3m1 0h1m1 0h1m1 0h3m1 0h3m2 0h2m1 0h1M2 20.5h1m1 0h1m1 0h3m1 0h1m2 0h3m2 0h1m4 0h1m5 0h2M3 21.5h3m1 0h1m4 0h1m4 0h1m1 0h1m2 0h1m1 0h2m1 0h1m1 0h1M2 22.5h1m2 0h1m1 0h2m1 0h3m1 0h1m3 0h1m1 0h7M10 23.5h1m4 0h1m1 0h1m1 0h1m1 0h2m3 0h1m1 0h3M2 24.5h7m2 0h1m1 0h2m1 0h3m1 0h3m1 0h1m1 0h2m1 0h2M2 25.5h1m5 0h1m3 0h1m1 0h3m2 0h4m3 0h2M2 26.5h1m1 0h3m1 0h1m1 0h1m1 0h2m2 0h3m1 0h1m1 0h5m2 0h2M2 27.5h1m1 0h3m1 0h1m3 0h3m1 0h5m1 0h1m3 0h1m1 0h1M2 28.5h1m1 0h3m1 0h1m1 0h1m2 0h1m1 0h1m1 0h2m2 0h3m1 0h3m2 0h1M2 29.5h1m5 0h1m4 0h1m5 0h1m1 0h3m5 0h1M2 30.5h7m1 0h3m1 0h1m1 0h1m1 0h1m2 0h2m3 0h1m2 0h2"/></svg>